<svg width="363" height="484" viewBox="0 0 363 484" fill="none" xmlns="http://www.w3.org/2000/svg">
<path d="M181.5 484C281.748 484 363 423.5 363 317.625C363 272.25 347.875 196.625 287.375 136.125C294.938 181.5 249.562 196.625 249.562 196.625C272.25 121 211.75 15.125 121 0C131.799 60.5 136.125 121 60.5 181.5C22.6875 211.75 0 264.052 0 317.625C0 423.5 81.2515 484 181.5 484ZM181.5 453.75C131.376 453.75 90.75 423.5 90.75 370.562C90.75 347.875 98.3125 310.062 128.562 279.812C124.781 302.5 151.25 317.625 151.25 317.625C139.906 279.812 166.375 219.312 211.75 211.75C206.335 242 204.188 272.25 242 302.5C260.906 317.625 272.25 343.761 272.25 370.562C272.25 423.5 231.624 453.75 181.5 453.75Z" fill="white"/>
</svg>
